Run_40002
nRows=4
nColumns=164

# SIMM Motion File Header:
name Run_40002
datacolumns 164
datarows 4
otherdata 1
range 1.44000000 1.47000000
endheader
time	pelvis_tilt	pelvis_list	pelvis_rotation	pelvis_tx	pelvis_ty	pelvis_tz	hip_flexion_r	hip_adduction_r	hip_rotation_r	knee_angle_r	ankle_angle_r	hip_flexion_l	hip_adduction_l	hip_rotation_l	knee_angle_l	ankle_angle_l	lumbar_extension	lumbar_bending	lumbar_rotation	arm_flex_r	arm_add_r	arm_rot_r	elbow_flex_r	pro_sup_r	arm_flex_l	arm_add_l	arm_rot_l	elbow_flex_l	pro_sup_l	subtalar_angle_r	mtp_angle_r	subtalar_angle_l	mtp_angle_l	wrist_flex_r	wrist_dev_r	wrist_flex_l	wrist_dev_l	LASI_tx	LASI_ty	LASI_tz	RASI_tx	RASI_ty	RASI_tz	LPSI_tx	LPSI_ty	LPSI_tz	RPSI_tx	RPSI_ty	RPSI_tz	RTH1_tx	RTH1_ty	RTH1_tz	RTH2_tx	RTH2_ty	RTH2_tz	RTH3_tx	RTH3_ty	RTH3_tz	LTH1_tx	LTH1_ty	LTH1_tz	LTH2_tx	LTH2_ty	LTH2_tz	LTH3_tx	LTH3_ty	LTH3_tz	RTB1_tx	RTB1_ty	RTB1_tz	RTB2_tx	RTB2_ty	RTB2_tz	RTB3_tx	RTB3_ty	RTB3_tz	LTB1_tx	LTB1_ty	LTB1_tz	LTB2_tx	LTB2_ty	LTB2_tz	LTB3_tx	LTB3_ty	LTB3_tz	RCAL_tx	RCAL_ty	RCAL_tz	RTOE_tx	RTOE_ty	RTOE_tz	RMT5_tx	RMT5_ty	RMT5_tz	LCAL_tx	LCAL_ty	LCAL_tz	LTOE_tx	LTOE_ty	LTOE_tz	LMT5_tx	LMT5_ty	LMT5_tz	LACR_tx	LACR_ty	LACR_tz	RACR_tx	RACR_ty	RACR_tz	CLAV_tx	CLAV_ty	CLAV_tz	C7_tx	C7_ty	C7_tz	RUA1_tx	RUA1_ty	RUA1_tz	RUA2_tx	RUA2_ty	RUA2_tz	RUA3_tx	RUA3_ty	RUA3_tz	RLEL_tx	RLEL_ty	RLEL_tz	RMEL_tx	RMEL_ty	RMEL_tz	LUA1_tx	LUA1_ty	LUA1_tz	LUA2_tx	LUA2_ty	LUA2_tz	LUA3_tx	LUA3_ty	LUA3_tz	LLEL_tx	LLEL_ty	LLEL_tz	LMEL_tx	LMEL_ty	LMEL_tz	RFAsuperior_tx	RFAsuperior_ty	RFAsuperior_tz	RFAradius_tx	RFAradius_ty	RFAradius_tz	RFAulna_tx	RFAulna_ty	RFAulna_tz	LFAsuperior_tx	LFAsuperior_ty	LFAsuperior_tz	LFAradius_tx	LFAradius_ty	LFAradius_tz	LFAulna_tx	LFAulna_ty	LFAulna_tz
      1.44000000	     -2.86238892	      3.84115152	     -2.99235119	      0.78978382	      1.01005381	     -0.29782909	    -22.15402721	     -2.29557341	      1.99160521	    -27.20868478	    -30.15808524	     29.99651386	      6.69828342	      3.46566266	    -13.02997103	      2.28792426	     -5.53767964	     -6.50161863	     13.82204034	    -17.77582690	    -27.49348157	    -13.06381346	    107.30016193	     75.23265139	    -45.82418167	    -20.77456670	    -12.43429025	    100.40872414	     88.49004301	      0.00000000	      0.00000000	      0.00000000	      0.00000000	      0.00000000	      0.00000000	      0.00000000	      0.00000000	      0.79211702	      1.04685645	     -0.42747805	      0.78908028	      1.01951575	     -0.17211382	      0.62601124	      1.06901368	     -0.35793250	      0.62390885	      1.06400581	     -0.25704140	      0.62980785	      0.86207384	     -0.13787769	      0.66270910	      0.73404200	     -0.14953414	      0.54456128	      0.66102785	     -0.17556882	      0.77086331	      0.84465496	     -0.47321252	      0.89555643	      0.76673581	     -0.45186218	      0.88724609	      0.63500567	     -0.43152160	      0.44651935	      0.42717767	     -0.24171884	      0.38191406	      0.41125435	     -0.17489092	      0.30807803	      0.32488755	     -0.23328133	      0.99246405	      0.42117454	     -0.35751794	      0.96285603	      0.32657120	     -0.41882121	      1.01441078	      0.26759947	     -0.34884190	      0.16667032	      0.35049594	     -0.23845568	      0.18892177	      0.12605488	     -0.26951856	      0.15172770	      0.16088311	     -0.18710226	      0.94351353	      0.09948839	     -0.33147430	      1.16372594	      0.16164759	     -0.31695886	      1.12684714	      0.11023409	     -0.40940675	      0.73228598	      1.50890529	     -0.47349673	      0.79004818	      1.52756272	     -0.15728527	      0.82531487	      1.45692090	     -0.29633752	      0.69639227	      1.53022984	     -0.29910673	      0.76037855	      1.46289617	     -0.05938861	      0.69165602	      1.39171982	     -0.05568429	      0.73652296	      1.34709383	     -0.01075242	      0.71803578	      1.24724476	      0.03901913	      0.67997606	      1.22177611	     -0.03079764	      0.64577010	      1.47233855	     -0.53488675	      0.58359872	      1.41771042	     -0.48409828	      0.53352588	      1.38337950	     -0.54337031	      0.48334423	      1.31446183	     -0.57708873	      0.48283525	      1.30437611	     -0.50035575	      0.82150191	      1.22882789	      0.01476969	      0.95169309	      1.20560620	     -0.06526878	      0.94264404	      1.14017497	     -0.03639371	      0.55794361	      1.23507744	     -0.59612475	      0.68139745	      1.12377365	     -0.55629673	      0.62571070	      1.08301733	     -0.57614174
      1.45000000	     -2.86711800	      2.93019913	     -3.25641003	      0.78946625	      1.00865175	     -0.29791986	    -20.65986236	     -1.25827084	      3.69451206	    -32.79901124	    -28.81518721	     28.49093750	      5.69041490	      3.63146706	     -8.60698923	      3.15194385	     -5.79225736	     -5.50537793	     13.63652868	    -17.77045849	    -27.77067296	    -12.77352001	    107.63154031	     75.86762282	    -45.30138814	    -20.07872767	    -12.90848541	    100.35393417	     88.59576751	      0.00000000	      0.00000000	      0.00000000	      0.00000000	      0.00000000	      0.00000000	      0.00000000	      0.00000000	      0.79269309	      1.04511179	     -0.42692597	      0.78865562	      1.02048110	     -0.17103310	      0.62610286	      1.06671579	     -0.35979287	      0.62364062	      1.06370989	     -0.25838819	      0.63334739	      0.86106388	     -0.14003482	      0.66865993	      0.73067072	     -0.15113487	      0.55354715	      0.65595909	     -0.17617916	      0.76605160	      0.83548542	     -0.47414137	      0.88941660	      0.75588121	     -0.45208878	      0.87631231	      0.62491589	     -0.43340591	      0.45004721	      0.42640611	     -0.24141072	      0.38419094	      0.41523446	     -0.17383461	      0.30388717	      0.33481189	     -0.23196019	      0.98985248	      0.41857104	     -0.35614570	      0.96609001	      0.32304729	     -0.41813227	      1.01864094	      0.26644355	     -0.34742135	      0.16168055	      0.36994533	     -0.23551512	      0.17364782	      0.14549251	     -0.26845208	      0.13866040	      0.18112268	     -0.18503494	      0.95626640	      0.09346849	     -0.33106401	      1.17209841	      0.16946775	     -0.31450651	      1.13890403	      0.11733844	     -0.40611955	      0.73511561	      1.50715341	     -0.47433914	      0.79051515	      1.52620232	     -0.15760186	      0.82628748	      1.45532062	     -0.29632398	      0.69784931	      1.52942135	     -0.30020655	      0.75950993	      1.46178584	     -0.05985322	      0.69031055	      1.39077795	     -0.05721839	      0.73464107	      1.34654914	     -0.01123674	      0.71613023	      1.24653992	      0.03844990	      0.67848261	      1.22102888	     -0.03169022	      0.64863803	      1.47015031	     -0.53593480	      0.58677526	      1.41524776	     -0.48443590	      0.53677439	      1.38078329	     -0.54288725	      0.48677111	      1.31179595	     -0.57791717	      0.48684103	      1.30085752	     -0.50147442	      0.81954604	      1.22761204	      0.01412099	      0.94916871	      1.20410675	     -0.06613156	      0.94075524	      1.13868664	     -0.03683234	      0.56213742	      1.23307493	     -0.59745549	      0.68632849	      1.12207972	     -0.55812257	      0.63083437	      1.08091010	     -0.57772690
      1.46000000	     -2.55122522	      2.33980609	     -3.24360209	      0.78857199	      1.00672030	     -0.29825031	    -19.14282963	     -0.37260198	      4.73104560	    -38.97430714	    -26.85865943	     27.04262564	      5.26217807	      3.99984985	     -6.01718984	      3.90976553	     -6.53900213	     -4.92613025	     13.00252163	    -17.57837481	    -27.93723722	    -12.30428198	    107.71063718	     76.41900632	    -44.31439612	    -19.60657863	    -13.12338306	    100.20249469	     88.46785668	      0.00000000	      0.00000000	      0.00000000	      0.00000000	      0.00000000	      0.00000000	      0.00000000	      0.00000000	      0.79255268	      1.04270027	     -0.42654513	      0.78877239	      1.02056666	     -0.16956960	      0.62506179	      1.06225991	     -0.36109540	      0.62268813	      1.06126655	     -0.25957324	      0.63759531	      0.85716918	     -0.14044756	      0.67573384	      0.72588789	     -0.15289310	      0.56390218	      0.64858184	     -0.17645071	      0.76094366	      0.82640590	     -0.47534548	      0.88299056	      0.74513133	     -0.45251703	      0.86864082	      0.61730701	     -0.43505275	      0.45595200	      0.42397844	     -0.24104958	      0.38943405	      0.41830066	     -0.17319332	      0.30303113	      0.34482767	     -0.23135056	      0.98623429	      0.41593796	     -0.35452012	      0.96569395	      0.31991550	     -0.41686052	      1.01755712	      0.26435244	     -0.34560648	      0.16000745	      0.38992825	     -0.23324220	      0.16303556	      0.16562995	     -0.26641756	      0.12990905	      0.20237459	     -0.18241135	      0.95825722	      0.08901562	     -0.33063225	      1.17184900	      0.17121528	     -0.31130207	      1.14074117	      0.12182429	     -0.40097404	      0.73829346	      1.50415454	     -0.47541928	      0.79086565	      1.52358985	     -0.15789196	      0.82711410	      1.45231392	     -0.29620923	      0.69924770	      1.52762415	     -0.30160215	      0.75820780	      1.45934346	     -0.06039924	      0.68861134	      1.38854424	     -0.05871075	      0.73219722	      1.34457234	     -0.01170579	      0.71340438	      1.24461240	      0.03775847	      0.67602481	      1.21927012	     -0.03260401	      0.65211491	      1.46626271	     -0.53818369	      0.59026238	      1.41120246	     -0.48600887	      0.54104444	      1.37557005	     -0.54388889	      0.49163702	      1.30630921	     -0.57980234	      0.49195274	      1.29481104	     -0.50361841	      0.81680303	      1.22473641	      0.01359651	      0.94595703	      1.20022758	     -0.06657620	      0.93764903	      1.13489015	     -0.03690398	      0.56842313	      1.22830031	     -0.59944326	      0.69314650	      1.11825493	     -0.55974642	      0.63801050	      1.07651422	     -0.57922648
      1.47000000	     -1.90867712	      2.30060401	     -2.98413558	      0.78748147	      1.00428980	     -0.29867517	    -17.66019124	     -0.05488822	      4.78824016	    -45.46633811	    -25.18097535	     25.85078679	      5.59499515	      4.41801745	     -5.73849467	      4.32194944	     -7.69032385	     -5.02723106	     11.97032034	    -17.28896946	    -27.88169113	    -11.68094922	    107.51172676	     76.95572152	    -42.98152619	    -19.49192773	    -13.13380645	    100.02453503	     88.16687117	      0.00000000	      0.00000000	      0.00000000	      0.00000000	      0.00000000	      0.00000000	      0.00000000	      0.00000000	      0.79179530	      1.03965654	     -0.42654748	      0.78941764	      1.01913106	     -0.16781991	      0.62320549	      1.05617913	     -0.36125376	      0.62121451	      1.05669421	     -0.26001541	      0.64205429	      0.85003742	     -0.13867230	      0.68340120	      0.72010143	     -0.15423734	      0.57482671	      0.63949079	     -0.17620437	      0.75741991	      0.82041383	     -0.47716881	      0.87814879	      0.73739906	     -0.45374055	      0.86652516	      0.61339890	     -0.43584590	      0.46413860	      0.42016722	     -0.24036604	      0.39778846	      0.42028347	     -0.17298522	      0.30584981	      0.35413187	     -0.23093480	      0.98161408	      0.41210290	     -0.35306661	      0.96087901	      0.31573497	     -0.41478955	      1.01147342	      0.26015055	     -0.34336469	      0.16410748	      0.40950126	     -0.23174682	      0.15630019	      0.18515687	     -0.26298289	      0.12493624	      0.22432404	     -0.17937546	      0.95023693	      0.08568819	     -0.32953004	      1.16414261	      0.16604019	     -0.30701211	      1.13335358	      0.11963828	     -0.39632776	      0.74153893	      1.49988294	     -0.47656954	      0.79099991	      1.51982732	     -0.15821052	      0.82769167	      1.44799124	     -0.29596963	      0.70047651	      1.52487045	     -0.30323660	      0.75660234	      1.45576023	     -0.06106211	      0.68657295	      1.38524882	     -0.06008419	      0.72932939	      1.34131161	     -0.01224304	      0.70978284	      1.24160520	      0.03692895	      0.67243963	      1.21664775	     -0.03359268	      0.65594062	      1.46073108	     -0.54126935	      0.59386861	      1.40542985	     -0.48861039	      0.54608659	      1.36804446	     -0.54653803	      0.49773339	      1.29824815	     -0.58283351	      0.49800618	      1.28638089	     -0.50683046	      0.81323447	      1.22029007	      0.01326727	      0.94202039	      1.19403726	     -0.06664173	      0.93319140	      1.12892921	     -0.03657768	      0.57640376	      1.22107604	     -0.60207752	      0.70160766	      1.11260028	     -0.56114550	      0.64706288	      1.07012031	     -0.58074066
